<svg xmlns="http://www.w3.org/2000/svg" viewBox="0 0 800 1200">
  <!-- Background -->
  <rect width="800" height="1200" fill="#f8f9fa"/>
  
  <!-- Title -->
  <text x="400" y="40" font-family="Arial" font-size="24" text-anchor="middle" font-weight="bold" fill="#333">TaxPal UI/UX Wireframes</text>
  
  <!-- Landing Page -->
  <rect x="50" y="70" width="700" height="300" fill="#fff" stroke="#ccc" stroke-width="2" rx="5"/>
  <text x="400" y="90" font-family="Arial" font-size="18" text-anchor="middle" fill="#333">Landing Page</text>
  
  <!-- Header -->
  <rect x="70" y="100" width="660" height="50" fill="#f0f4f8" stroke="#ccc" stroke-width="1"/>
  <text x="120" y="130" font-family="Arial" font-size="16" font-weight="bold" fill="#0066cc">TaxPal</text>
  <rect x="550" y="110" width="70" height="30" fill="#0066cc" rx="5"/>
  <text x="585" y="130" font-family="Arial" font-size="14" text-anchor="middle" fill="#fff">Login</text>
  <rect x="630" y="110" width="80" height="30" fill="#00cc88" rx="5"/>
  <text x="670" y="130" font-family="Arial" font-size="14" text-anchor="middle" fill="#fff">Sign Up</text>
  
  <!-- Hero Section -->
  <rect x="70" y="160" width="660" height="120" fill="#fff"/>
  <text x="400" y="190" font-family="Arial" font-size="24" text-anchor="middle" font-weight="bold" fill="#333">Irish Tax Legislation at Your Fingertips</text>
  <text x="400" y="220" font-family="Arial" font-size="16" text-anchor="middle" fill="#666">Get accurate answers from Irish tax laws instantly</text>
  <rect x="330" y="240" width="140" height="40" fill="#0066cc" rx="5"/>
  <text x="400" y="265" font-family="Arial" font-size="16" text-anchor="middle" fill="#fff">Get Started</text>
  
  <!-- Features -->
  <rect x="70" y="290" width="200" height="60" fill="#f8f9fa" stroke="#eee" stroke-width="1"/>
  <text x="170" y="320" font-family="Arial" font-size="14" text-anchor="middle" fill="#333">Instant Answers</text>
  <rect x="280" y="290" width="200" height="60" fill="#f8f9fa" stroke="#eee" stroke-width="1"/>
  <text x="380" y="320" font-family="Arial" font-size="14" text-anchor="middle" fill="#333">Accurate Citations</text>
  <rect x="490" y="290" width="200" height="60" fill="#f8f9fa" stroke="#eee" stroke-width="1"/>
  <text x="590" y="320" font-family="Arial" font-size="14" text-anchor="middle" fill="#333">Expert Formulations</text>
  
  <!-- Chat Interface -->
  <rect x="50" y="400" width="700" height="350" fill="#fff" stroke="#ccc" stroke-width="2" rx="5"/>
  <text x="400" y="420" font-family="Arial" font-size="18" text-anchor="middle" fill="#333">Chat Interface</text>
  
  <!-- Sidebar -->
  <rect x="70" y="440" width="160" height="290" fill="#f0f4f8" stroke="#ccc" stroke-width="1"/>
  <text x="150" y="460" font-family="Arial" font-size="14" text-anchor="middle" fill="#333">Chat History</text>
  
  <rect x="80" y="470" width="140" height="1" fill="#ccc"/>
  <rect x="80" y="480" width="140" height="30" fill="#e6f0ff" rx="3"/>
  <text x="90" y="500" font-family="Arial" font-size="12" fill="#0066cc">Income Tax Question</text>
  <rect x="80" y="520" width="140" height="30" fill="#f0f4f8" rx="3"/>
  <text x="90" y="540" font-family="Arial" font-size="12" fill="#333">VAT Rates Query</text>
  <rect x="80" y="560" width="140" height="30" fill="#f0f4f8" rx="3"/>
  <text x="90" y="580" font-family="Arial" font-size="12" fill="#333">Capital Gains Tax</text>
  
  <rect x="80" y="680" width="140" height="40" fill="#f8f9fa" stroke="#ccc" stroke-width="1" rx="3"/>
  <text x="150" y="705" font-family="Arial" font-size="12" text-anchor="middle" fill="#666">10/50 queries used</text>
  
  <!-- Main Chat Area -->
  <rect x="240" y="440" width="490" height="290" fill="#fff" stroke="#ccc" stroke-width="1"/>
  
  <!-- Disclaimer -->
  <rect x="250" y="450" width="470" height="30" fill="#fff4e6" stroke="#ffd8a8" stroke-width="1" rx="3"/>
  <text x="485" y="470" font-family="Arial" font-size="12" text-anchor="middle" fill="#cc6600">Not formal legal advice. Refer to a tax professional for official guidance.</text>
  
  <!-- Chat Messages -->
  <rect x="250" y="490" width="470" height="200" fill="#fff"/>
  
  <!-- User Message -->
  <rect x="380" y="500" width="330" height="50" fill="#e6f0ff" stroke="#ccc" stroke-width="1" rx="5"/>
  <text x="400" y="525" font-family="Arial" font-size="14" fill="#333">What are the current income tax bands in Ireland?</text>
  
  <!-- Bot Response -->
  <rect x="260" y="560" width="450" height="80" fill="#f8f9fa" stroke="#ccc" stroke-width="1" rx="5"/>
  <text x="280" y="580" font-family="Arial" font-size="14" fill="#333">The current income tax bands in Ireland are:</text>
  <text x="280" y="605" font-family="Arial" font-size="14" fill="#333">- 20% on the first €36,800 (single person)</text>
  <text x="280" y="625" font-family="Arial" font-size="14" fill="#333">- 40% on the balance</text>
  
  <!-- Citation -->
  <rect x="260" y="650" width="450" height="30" fill="#f0f4f8" stroke="#ccc" stroke-width="1" rx="3"/>
  <text x="280" y="670" font-family="Arial" font-size="12" fill="#0066cc">Source: Finance Act 2022, Section 5(2)</text>
  
  <!-- Input Area -->
  <rect x="250" y="700" width="470" height="20" fill="#fff"/>
  <rect x="250" y="720" width="400" height="40" fill="#fff" stroke="#ccc" stroke-width="1" rx="20"/>
  <text x="270" y="745" font-family="Arial" font-size="14" fill="#999">Type your tax question here...</text>
  <circle cx="680" cy="740" r="20" fill="#0066cc"/>
  <text x="680" y="745" font-family="Arial" font-size="20" text-anchor="middle" fill="#fff">↑</text>
  
  <!-- Admin Dashboard -->
  <rect x="50" y="780" width="700" height="350" fill="#fff" stroke="#ccc" stroke-width="2" rx="5"/>
  <text x="400" y="800" font-family="Arial" font-size="18" text-anchor="middle" fill="#333">Admin Dashboard</text>
  
  <!-- Navigation -->
  <rect x="70" y="820" width="660" height="50" fill="#f0f4f8" stroke="#ccc" stroke-width="1"/>
  <text x="120" y="850" font-family="Arial" font-size="16" fill="#0066cc">Dashboard</text>
  <text x="240" y="850" font-family="Arial" font-size="16" fill="#666">Users</text>
  <text x="320" y="850" font-family="Arial" font-size="16" fill="#666">Documents</text>
  <text x="440" y="850" font-family="Arial" font-size="16" fill="#666">Feedback</text>
  <text x="550" y="850" font-family="Arial" font-size="16" fill="#666">Settings</text>
  
  <!-- Dashboard Stats -->
  <rect x="70" y="880" width="210" height="100" fill="#f8f9fa" stroke="#ccc" stroke-width="1" rx="5"/>
  <text x="175" y="900" font-family="Arial" font-size="14" text-anchor="middle" fill="#333">Active Users</text>
  <text x="175" y="940" font-family="Arial" font-size="28" text-anchor="middle" fill="#0066cc">128</text>
  
  <rect x="290" y="880" width="210" height="100" fill="#f8f9fa" stroke="#ccc" stroke-width="1" rx="5"/>
  <text x="395" y="900" font-family="Arial" font-size="14" text-anchor="middle" fill="#333">Queries Today</text>
  <text x="395" y="940" font-family="Arial" font-size="28" text-anchor="middle" fill="#0066cc">523</text>
  
  <rect x="510" y="880" width="220" height="100" fill="#f8f9fa" stroke="#ccc" stroke-width="1" rx="5"/>
  <text x="620" y="900" font-family="Arial" font-size="14" text-anchor="middle" fill="#333">Feedback Accuracy</text>
  <text x="620" y="940" font-family="Arial" font-size="28" text-anchor="middle" fill="#00cc88">92%</text>
  
  <!-- Document Management -->
  <rect x="70" y="990" width="660" height="130" fill="#fff" stroke="#ccc" stroke-width="1" rx="5"/>
  <text x="90" y="1010" font-family="Arial" font-size="16" fill="#333">Document Management</text>
  
  <rect x="80" y="1020" width="640" height="40" fill="#f8f9fa" stroke="#eee" stroke-width="1"/>
  <text x="100" y="1045" font-family="Arial" font-size="14" fill="#333">Tax Consolidation Act 1997</text>
  <text x="400" y="1045" font-family="Arial" font-size="14" fill="#666">Last updated: 01/02/2024</text>
  <rect x="620" y="1025" width="80" height="30" fill="#0066cc" rx="3"/>
  <text x="660" y="1045" font-family="Arial" font-size="14" text-anchor="middle" fill="#fff">Update</text>
  
  <rect x="80" y="1070" width="640" height="40" fill="#f8f9fa" stroke="#eee" stroke-width="1"/>
  <text x="100" y="1095" font-family="Arial" font-size="14" fill="#333">VAT Consolidation Act 2010</text>
  <text x="400" y="1095" font-family="Arial" font-size="14" fill="#666">Last updated: 15/01/2024</text>
  <rect x="620" y="1075" width="80" height="30" fill="#0066cc" rx="3"/>
  <text x="660" y="1095" font-family="Arial" font-size="14" text-anchor="middle" fill="#fff">Update</text>
</svg>